<svg xmlns="http://www.w3.org/2000/svg" fill="none" viewBox="0 0 193 193">
  <path fill="url(#a)" fill-rule="evenodd" d="M191.3 97.4h-66.6l.1-2.6V91l-.1-3v-3.6c0-3.5.5-6.4 1.6-8.8 1.2-2.4 3-4.5 5-6.1A29 29 0 0 1 139 65c3-1.3 6.4-2.4 10-3.5l8.5-2.6c2.4-.8 4.3-1.7 5.7-2.5 1.5-1 2.6-2 3.2-3a6.9 6.9 0 0 0 1.1-4c0-1.8-.8-3.3-2.3-4.4a11.7 11.7 0 0 0-6.9-1.7c-3.3 0-5.7.7-7.2 2a6.1 6.1 0 0 0-2 4.8v2.4l.2 2.5-4.9-.1H139a185 185 0 0 0-13.3.2l-.1-2.2-.3-2.4v-1.9c0-3.3.6-6.4 1.8-9a18 18 0 0 1 6-6.9 29 29 0 0 1 10.6-4.3c4.3-1 9.5-1.5 15.4-1.5a61 61 0 0 1 19.6 2.6c5 1.7 8.5 4.1 10.6 7.3a19 19 0 0 1 3.4 11.2c0 3.8-.6 7-1.9 9.8a17 17 0 0 1-4.8 6.5 28.1 28.1 0 0 1-8 4.5 98.4 98.4 0 0 1-10.7 3.3c-3.1.8-5.8 1.4-7.9 2.1-2.1.6-3.8 1.3-5.1 2a7.3 7.3 0 0 0-2.8 2 4 4 0 0 0-.7 1.3h18.9a446 446 0 0 0 21.7-.4l-.1 4.6v9.8l.1 4Zm-53 46.3v-.3l.2-.6c.9-3.9 4-6.3 8-6.2 3.9 0 6 2 6.5 6.4.3 1.7.3 3.3.3 5v.5a18.4 18.4 0 0 0 11 17.1l-.1-.3-.2-.6c-2.5-7.8-.7-13.1 6.1-17.7l2.1-1.4 4.5-3.1c5.4-4 8.8-9.2 9.5-16 .4-2.7.1-5.4-.8-8-.4.1-.8.4-1.1.6l-2.3 1.4a51.4 51.4 0 0 1-31.1 3.8c-7-1-13.6-2.9-18.5-8.7-2.7 9.2-.8 22 5.9 28.1ZM34.8 113.2l3.5.2H47c2.8 0 5.3-.2 7.4-.5 2.2-.5 4-1.2 5.6-2.3 1.5-1 2.8-2.6 3.8-4.5 1-2 1.8-4.7 2.3-7.8a67.8 67.8 0 0 0 0-22.6 21 21 0 0 0-2.3-7.3c-.9-1.9-2.1-3.3-3.7-4.4-1.6-1-3.4-1.7-5.6-2a41 41 0 0 0-7.2-.6 140.6 140.6 0 0 0-12.3.4 5237.3 5237.3 0 0 0-.2 15.7v35.7ZM.6 140.4H49c7.6 0 14.3-.5 20-1.7a42.5 42.5 0 0 0 14.6-5.7c4.1-2.6 7.4-6 10-10.1 2.5-4.3 4.4-9.5 5.6-15.6a115.9 115.9 0 0 0-.1-41.9 38.3 38.3 0 0 0-6-14c-2.6-3.8-6-6.8-10-9a42 42 0 0 0-14.3-5 122 122 0 0 0-19.1-1.3H.6v10.8c.2 3.8.2 7.9.2 12.1L1 72.8v15.6a1339.3 1339.3 0 0 1-.3 37l-.1 15Z" clip-rule="evenodd"/>
  <defs>
    <linearGradient id="a" x1=".6" x2="203.3" y1="165.6" y2="45.1" gradientUnits="userSpaceOnUse">
      <stop stop-color="#D83333"/>
      <stop offset="1" stop-color="#F041FF"/>
    </linearGradient>
  </defs>
</svg>
