<svg xmlns="http://www.w3.org/2000/svg" viewBox="0 -1 72 40">
  <path fill="#fff" d="M8.65 35.14c-1.52-1.35-1.96-4.19-1.33-6.25 1.1 1.3 2.61 1.71 4.18 1.94 2.43.36 4.81.23 7.06-.86.26-.12.5-.28.78-.45.21.6.27 1.2.2 1.82a4.96 4.96 0 0 1-2.16 3.53c-.49.35-1 .67-1.5 1-1.55 1.02-1.96 2.2-1.38 3.94 0 .05.02.09.05.2a4.16 4.16 0 0 1-2.5-3.8c0-.41 0-.82-.05-1.22-.14-.97-.6-1.4-1.49-1.43-.9-.03-1.62.52-1.8 1.38l-.06.2ZM0 28.55s4.49-2.14 8.99-2.14l3.39-10.25c.13-.5.5-.84.91-.84.42 0 .8.34.92.84l3.4 10.25a19.3 19.3 0 0 1 8.98 2.14L18.95 8.23c-.21-.6-.58-.99-1.08-.99H8.72c-.5 0-.85.39-1.08.99L0 28.55Z"/>
  <path fill="url(#a)" d="m38.7 26.44-1.25-3.17.94.15.88.05h1.79c.57 0 1.08-.03 1.51-.11.46-.1.84-.25 1.14-.46.33-.22.6-.54.8-.94.21-.41.36-.95.46-1.6.11-.64.17-1.43.17-2.36 0-.89-.06-1.64-.17-2.25a4.59 4.59 0 0 0-.46-1.5 2.19 2.19 0 0 0-.77-.89c-.32-.2-.7-.35-1.14-.43a8.4 8.4 0 0 0-1.48-.11c-.64 0-1.26.02-1.85.06-.59.02-1.18.04-1.77.08l1.2-3.16a561.19 561.19 0 0 0-.14 6.32v7.18l.05 1.68c.02.5.05.98.09 1.46ZM41.5 29h-9.95c.02-1 .03-2.03.03-3.08.02-1.06.03-2.2.03-3.44.02-1.26.02-2.63.02-4.13v-3.2c0-1 0-1.94-.02-2.82 0-.87-.01-1.7-.03-2.47 0-.78-.01-1.52-.03-2.23h10.08c1.47 0 2.77.1 3.9.29 1.15.19 2.12.52 2.94 1a5.83 5.83 0 0 1 2.05 1.85c.55.76.96 1.72 1.23 2.88a24.35 24.35 0 0 1 .03 8.57 9.71 9.71 0 0 1-1.17 3.2 6.23 6.23 0 0 1-2.03 2.07c-.81.53-1.8.92-2.99 1.17a21.8 21.8 0 0 1-4.1.34Zm29.11-8.8H56.97c.02-.14.03-.32.03-.54v-.77l-.03-.63v-.74c0-.7.11-1.3.34-1.8.25-.49.59-.9 1.02-1.25a6.1 6.1 0 0 1 1.57-.91c.63-.27 1.31-.5 2.05-.71l1.74-.54c.5-.17.88-.35 1.17-.52.3-.19.52-.4.65-.62.16-.23.23-.5.23-.8 0-.38-.16-.68-.48-.91-.3-.23-.77-.34-1.4-.34-.68 0-1.18.13-1.48.4-.29.24-.43.57-.43 1V11l.06.5a15.2 15.2 0 0 0-1-.02h-1.14c-.53 0-1.03.01-1.5.03a22 22 0 0 0-1.2.03l-.03-.46-.06-.48v-.4c0-.69.12-1.3.37-1.85.27-.55.68-1.02 1.23-1.4.57-.4 1.29-.7 2.16-.88.9-.21 1.95-.32 3.16-.32 1.67 0 3.01.18 4.02.55 1 .34 1.73.83 2.17 1.48.45.64.68 1.41.68 2.3 0 .78-.12 1.45-.37 2a3.5 3.5 0 0 1-1 1.34 5.7 5.7 0 0 1-1.62.9c-.65.26-1.38.48-2.2.7-.64.14-1.18.29-1.62.42a6.5 6.5 0 0 0-1.05.4 1.5 1.5 0 0 0-.57.43.88.88 0 0 0-.17.54l-.55-.29h4.44a91.73 91.73 0 0 0 4.45-.08c0 .26 0 .58-.03.94v2.02l.03.8Z"/>
  <defs>
    <linearGradient id="a" x1="29.7" x2="76.55" y1="34" y2="9.16" gradientUnits="userSpaceOnUse">
      <stop stop-color="#E33B3B"/>
      <stop offset="1" stop-color="#F470FF"/>
    </linearGradient>
  </defs>
</svg>
